<svg id="visual" viewBox="0 0 1920 1080" width="1920" height="1080" xmlns="http://www.w3.org/2000/svg" xmlns:xlink="http://www.w3.org/1999/xlink" version="1.1"><rect width="1920" height="1080" fill="#001829"></rect><g><g transform="translate(346 610)"><path d="M0 -270.9L234.6 -135.5L234.6 135.5L0 270.9L-234.6 135.5L-234.6 -135.5Z" fill="#297EA6"></path></g><g transform="translate(1860 989)"><path d="M0 -244L211.3 -122L211.3 122L0 244L-211.3 122L-211.3 -122Z" fill="#297EA6"></path></g><g transform="translate(976 35)"><path d="M0 -188L162.8 -94L162.8 94L0 188L-162.8 94L-162.8 -94Z" fill="#297EA6"></path></g><g transform="translate(1149 596)"><path d="M0 -220L190.5 -110L190.5 110L0 220L-190.5 110L-190.5 -110Z" fill="#297EA6"></path></g></g></svg>